<?xml version="1.0" encoding="utf-8"?>
<!-- Generator: Adobe Illustrator 24.0.0, SVG Export Plug-In . SVG Version: 6.00 Build 0)  -->
<svg version="1.1" baseProfile="tiny" id="Layer_1" xmlns="http://www.w3.org/2000/svg" xmlns:xlink="http://www.w3.org/1999/xlink"
	 x="0px" y="0px" viewBox="0 0 200 200" xml:space="preserve">
<path fill="#a9b0b1" d="M185.864,189.87c-11.85,0.858-17.799-1.081-27.113-15.607c-7.985-12.453-15.488-25.54-22.444-38.684
	c0.935-0.29,1.447-0.493,1.447-0.493c15.972-4.637,29.711-15.628,29.711-30.397c0-18.719-15.854-28.797-40.272-29.216
	c-3.798-0.065-12.252-0.066-19.354-0.045C91.127,36.164,81.55,6.159,81.55,6.159h-1.546l-8.758,8.931l-36.752,92.395
	c-4.465,11.163-9.274,15.971-16.144,17.002l-3.435,0.515v1.889c3.435,0,13.224-0.344,19.75-0.344c6.526,0,16.659,0.344,20.094,0.344
	v-1.889l-6.011-0.687c-6.011-0.687-9.102-4.465-9.102-10.304c0-3.95,1.546-10.476,3.263-14.941l7.557-19.406h44.823
	c0,0,10.729,25.434,25.874,54.908c-6.135-0.001-26.49-0.087-27.458-0.494l-0.087,33.467c0,17.002-1.889,20.952-10.132,21.982
	l-6.354,0.859v1.889c3.778,0,16.83-0.344,23.356-0.344c6.525,0,22.154,0.344,25.589,0.344v-1.889l-7.9-1.031
	c-8.759-1.202-10.819-4.98-10.819-21.811l0.301-29.839c4.108,0.342,10.283,0.084,15.103-0.042
	c6.492,12.497,13.725,25.575,21.231,37.648c8.362,13.448,16.681,17.651,30.881,17.651c5.152,0,6.87-0.344,11.335-1.031
	L185.864,189.87z M52.011,75.541l21.124-54.269l20.609,54.269H52.011z M124.123,79.519c17.517,0,27.714,6.622,27.714,26.2
	c0,15.511-6.118,23.792-16.98,27.102c-9.524-18.206-17.988-36.44-25.211-53.178C116.437,79.632,124.123,79.519,124.123,79.519z"/>
</svg>
